<?xml version="1.0" encoding="UTF-8"?> <svg xmlns="http://www.w3.org/2000/svg" width="97.75" height="97.75"> <g> <title>background</title> <rect x="-1" y="-1" width="99.75" height="99.75" id="canvas_background" fill="none"></rect> </g> <g> <title>Layer 1</title> <ellipse ry="40" rx="36" id="svg_21" cy="50.328125" cx="48.375" stroke-opacity="null" stroke-width="null" stroke="null" fill="#ffffff"></ellipse> <g id="svg_1" stroke="null"> <g id="svg_2" stroke="null"> <path d="m48.920058,40.678213c4.571511,-0.016652 8.21246,-3.688946 8.195808,-8.270253c-0.016652,-4.583266 -3.665437,-8.230092 -8.238908,-8.23401c-4.611673,-0.004898 -8.294742,3.709517 -8.259478,8.333923c0.034284,4.564655 3.716373,8.186992 8.302578,8.17034z" id="svg_3" fill="#c4c4c4" stroke="null"></path> <path d="m48.875,1.000001c-26.440713,0 -47.875,21.435266 -47.875,47.875s21.434286,47.875 47.875,47.875s47.875,-21.435266 47.875,-47.875s-21.434286,-47.875 -47.875,-47.875zm0.068568,14.558898c9.325217,0.025468 16.80988,7.653143 16.761882,17.081212c-0.047018,9.210611 -7.654123,16.675683 -16.963667,16.644337c-9.214529,-0.031345 -16.771678,-7.670775 -16.716823,-16.899997c0.051916,-9.330115 7.612982,-16.85102 16.918609,-16.825552l-0.000001,0zm18.887483,40.351156c-2.061931,2.116785 -4.544084,3.648785 -7.300509,4.717463c-2.605575,1.009905 -5.460933,1.518286 -8.287885,1.857207c0.428059,0.464302 0.628864,0.692535 0.895299,0.958969c3.835877,3.856448 7.690366,7.693304 11.513509,11.560527c1.302788,1.31846 1.57412,2.952332 0.857097,4.483353c-0.782652,1.675013 -2.538967,2.776015 -4.261977,2.657491c-1.091207,-0.075425 -1.942427,-0.61711 -2.697652,-1.378212c-2.895519,-2.913151 -5.845893,-5.774386 -8.68068,-8.742391c-0.827711,-0.863954 -1.223445,-0.699391 -1.953202,0.050936c-2.912171,2.99935 -5.87234,5.950703 -8.849161,8.886384c-1.337072,1.31846 -2.927844,1.557468 -4.479435,0.803222c-1.648565,-0.797345 -2.696673,-2.481174 -2.61635,-4.174798c0.056813,-1.142143 0.619069,-2.017852 1.40466,-2.799524c3.797675,-3.789839 7.583596,-7.591432 11.370496,-11.390087c0.251742,-0.251742 0.484872,-0.519156 0.85024,-0.910972c-5.165112,-0.539726 -9.822823,-1.811169 -13.810529,-4.929043c-0.495647,-0.387898 -1.005987,-0.762082 -1.456575,-1.196997c-1.746519,-1.675992 -1.921857,-3.59687 -0.541685,-5.573581c1.182304,-1.692644 3.164893,-2.145192 5.226823,-1.172509c0.399652,0.187092 0.779714,0.424141 1.144102,0.674903c7.430788,5.10634 17.63955,5.246414 25.099724,0.228233c0.738573,-0.564215 1.529061,-1.028517 2.444931,-1.262627c1.778844,-0.458425 3.440143,0.196887 4.394215,1.754355c1.092187,1.779824 1.079453,3.515568 -0.265455,4.897698l-0.000001,0z" id="svg_4" fill="#c4c4c4" stroke="null"></path> </g> </g> <g id="svg_5"></g> <g id="svg_6"></g> <g id="svg_7"></g> <g id="svg_8"></g> <g id="svg_9"></g> <g id="svg_10"></g> <g id="svg_11"></g> <g id="svg_12"></g> <g id="svg_13"></g> <g id="svg_14"></g> <g id="svg_15"></g> <g id="svg_16"></g> <g id="svg_17"></g> <g id="svg_18"></g> <g id="svg_19"></g> </g> </svg> 