<?xml version="1.0" encoding="UTF-8"?> <svg xmlns="http://www.w3.org/2000/svg" width="72" height="72"> <!-- Created with SVG Editor - http://github.com/mzalive/SVG Editor/ --> <g> <title>background</title> <rect fill="none" id="canvas_background" height="74" width="74" y="-1" x="-1"></rect> <g display="none" overflow="visible" y="0" x="0" height="100%" width="100%" id="canvasGrid"> <rect fill="url(#gridpattern)" stroke-width="0" y="1" x="1" height="400" width="580"></rect> </g> </g> <g> <title>Layer 1</title> <g id="svg_9"> <g id="svg_10"> <path stroke="#000000" stroke-opacity="0" id="svg_5" fill="#c4c4c4" d="m35.000003,0.27779c-19.176702,0 -34.72222,15.545517 -34.72222,34.72222l0,0c0,19.176702 15.545517,34.72222 34.72222,34.72222l0,0c19.176702,0 34.72222,-15.545517 34.72222,-34.72222l0,0c0,-19.176702 -15.545517,-34.72222 -34.72222,-34.72222l0,0z"></path> <path id="svg_6" fill="#FFFFFF" d="m51.895238,20.251421l-6.201714,31.268173c0,0 -0.867242,2.168511 -3.252495,1.127658l-14.311522,-10.972221l-5.203993,-2.515191l-8.760307,-2.949219c0,0 -1.344401,-0.476888 -1.474609,-1.517741c-0.129937,-1.040853 1.518012,-1.604546 1.518012,-1.604546l34.824216,-13.661023c0,0 2.862413,-1.257595 2.862413,0.82411"></path> <path id="svg_7" fill="#D2E5F1" d="m27.029572,51.168492c0,0 -0.417752,-0.039062 -0.938314,-1.687283c-0.520291,-1.647949 -3.16569,-10.321451 -3.16569,-10.321451l21.033256,-13.357204c0,0 1.214464,-0.737305 1.171061,0c0,0 0.216743,0.129937 -0.433756,0.737033c-0.650499,0.607368 -16.523165,14.875216 -16.523165,14.875216"></path> <path id="svg_8" fill="#B5CFE4" d="m33.616946,45.882007l-5.660807,5.161132c0,0 -0.442437,0.335829 -0.926649,0.125326l1.083984,-9.586859"></path> </g> </g> </g> </svg> 